<?xml version="1.0" standalone="no"?>
<!DOCTYPE svg PUBLIC "-//W3C//DTD SVG 20010904//EN"
 "http://www.w3.org/TR/2001/REC-SVG-20010904/DTD/svg10.dtd">
<svg version="1.0" xmlns="http://www.w3.org/2000/svg"
 width="5000.000000pt" height="5000.000000pt" viewBox="0 0 5000.000000 5000.000000"
 preserveAspectRatio="xMidYMid meet">

<g transform="translate(0.000000,5000.000000) scale(0.100000,-0.100000)"
fill="#000000" stroke="none">
<path d="M0 25000 l0 -25000 25000 0 25000 0 0 25000 0 25000 -25000 0 -25000
0 0 -25000z m15765 16860 c374 -216 795 -459 935 -540 140 -81 401 -232 580
-335 179 -103 397 -229 485 -280 192 -110 830 -479 1005 -580 69 -40 404 -233
745 -430 341 -197 836 -483 1100 -635 817 -472 1415 -817 2655 -1533 657 -379
1283 -740 1390 -802 107 -62 443 -256 745 -430 828 -478 1749 -1010 2035
-1175 140 -81 516 -298 835 -482 1588 -917 2120 -1224 2565 -1481 1099 -635
1475 -851 2060 -1189 338 -195 937 -541 1330 -768 393 -227 846 -488 1005
-580 160 -92 535 -309 835 -482 300 -173 770 -445 1045 -603 275 -158 536
-309 580 -335 44 -26 170 -99 280 -162 548 -317 3095 -1786 4050 -2338 264
-152 759 -438 1100 -635 341 -197 690 -398 775 -447 85 -50 359 -207 608 -351
248 -143 452 -264 452 -267 0 -4 -44 -32 -97 -62 -54 -31 -255 -147 -448 -258
-192 -111 -757 -438 -1255 -725 -498 -287 -1110 -640 -1360 -785 -250 -144
-762 -440 -1137 -656 -375 -217 -686 -394 -691 -394 -6 0 -183 100 -394 221
-210 122 -558 323 -773 447 -214 124 -448 259 -520 300 -159 92 -1712 989
-2065 1192 -140 81 -475 275 -745 430 -649 376 -1307 756 -1985 1147 -305 176
-701 405 -880 508 -304 176 -556 321 -2165 1250 -341 197 -777 449 -970 560
-338 195 -783 452 -2290 1322 -390 226 -946 546 -1235 713 -289 166 -624 360
-745 430 -121 70 -323 187 -450 260 -126 73 -507 293 -845 488 -338 195 -1067
616 -1620 935 -553 319 -1088 628 -1190 687 -102 59 -392 226 -645 372 -253
146 -1117 645 -1920 1108 -803 464 -1579 912 -1725 996 -146 84 -607 350
-1025 591 l-760 439 -3 2888 -2 2888 32 -20 c18 -11 339 -197 713 -412z m853
-12037 c873 -504 1686 -973 1807 -1043 121 -70 398 -229 615 -355 217 -126
526 -304 685 -395 l290 -167 5 -5745 5 -5745 315 182 c173 100 608 350 965
557 1816 1048 3915 2261 4795 2768 616 355 3636 2099 3743 2161 65 38 122 69
127 69 5 0 139 -75 297 -166 546 -316 2300 -1328 3138 -1812 462 -266 908
-524 990 -572 83 -47 246 -142 363 -210 180 -103 211 -125 195 -133 -10 -6
-380 -219 -823 -475 -443 -256 -1039 -600 -1325 -765 -554 -320 -1211 -699
-1935 -1117 -245 -141 -521 -301 -615 -355 -170 -98 -834 -481 -1490 -860
-192 -111 -569 -329 -837 -484 -1132 -653 -1495 -862 -2073 -1196 -335 -194
-1105 -638 -1710 -987 -605 -349 -1320 -762 -1590 -918 -705 -407 -1569 -906
-2685 -1550 -536 -310 -1031 -595 -1100 -635 -69 -40 -314 -181 -545 -315
-231 -133 -667 -385 -970 -560 -302 -174 -914 -528 -1360 -785 -445 -257 -825
-476 -842 -487 l-33 -20 0 11516 c0 6334 2 11516 5 11516 3 0 720 -412 1593
-917z"/>
</g>
</svg>
